<svg id="Layer_1" data-name="Layer 1" xmlns="http://www.w3.org/2000/svg" viewBox="0 0 150 150"><defs><style>.cls-1{fill:#16a966;}.cls-2{fill:#0b874c;}</style></defs><path class="cls-1" d="M114.32,73.55a10.51,10.51,0,0,0-8.65,16.5,30.94,30.94,0,0,1-15.94,4.17c-6.1,0-15.84-1.34-20.63-4A28.6,28.6,0,0,1,57.91,79a33,33,0,0,1-4-16.33,32.92,32.92,0,0,1,4-16.32A28.53,28.53,0,0,1,69.1,35.18a32.85,32.85,0,0,1,16.33-4,32,32,0,0,1,12.8,2.53,24.49,24.49,0,0,0,26.39-4.3l.22-.2a46.46,46.46,0,0,0-17.38-12.95A57.51,57.51,0,0,0,84.3,11.74a56.9,56.9,0,0,0-27.37,6.55A48.75,48.75,0,0,0,37.79,36.44a50,50,0,0,0-7,26.25,50,50,0,0,0,7,26.25A48.78,48.78,0,0,0,56.93,107.1c7.95,4.27,21.13,6.45,30.93,6.53h.6c23.6,0,32-14.23,34.87-23,.36-1.09.64-2.08.85-3a10.51,10.51,0,0,0-9.86-14.18Z"/><path class="cls-1" d="M94.18,58.82v59.55S93,141.08,65.46,138l-.91-.11c-5.49-.67-5.07-8.68.46-8.83,8-.2,14.84-3.15,14.84-12.73V62.69l14.33-7.26Z"/><path class="cls-2" d="M94.18,113.23H79.85v2.19a30.62,30.62,0,0,1,14.33,0Z"/><path class="cls-2" d="M35.72,85.11s1.9,3.68,2.43,4.43c0,0,11.23-7.21,21.52-7.71,0,0-1.19-1.74-1.85-3s-1.53-1-1.53-1Z"/><path class="cls-1" d="M141.47,58.07c-3.92-7.65-12.86-11.35-21.35-12.68a63.42,63.42,0,0,0-30.61,2.79C72.92,54,51.41,66.59,33.21,67.33c-4.16.17-8.87-.59-11.28-4a9.94,9.94,0,0,1-1.13-8.15,18.35,18.35,0,0,1,1.42-3.67,4.74,4.74,0,1,0,4.21-6.93,4.65,4.65,0,0,0-1.68.32h0l-.13.05-.08,0a32.62,32.62,0,0,0-12.9,9.64A22.76,22.76,0,0,0,6.93,64c-1.62,7.49,2.6,13.37,8.9,17,23.56,13.5,51.87-9.1,70.94-19.47a57.63,57.63,0,0,1,7.09-3.28C110.94,51.75,135.64,57,140.63,77,143.86,71.28,144.47,63.93,141.47,58.07Z"/></svg>