<svg id="Layer_1" data-name="Layer 1" xmlns="http://www.w3.org/2000/svg" viewBox="0 0 44 44"><defs><style>.cls-1{fill:#fff;}</style></defs><path class="cls-1" d="M43.8,23.3c-.1.8-.2,1.7-.3,2.5A21.46,21.46,0,0,1,32.3,41.2a19.73,19.73,0,0,1-11.1,2.5A21.37,21.37,0,0,1,2.9,32.2,18.85,18.85,0,0,1,.3,21.1,21.37,21.37,0,0,1,11.8,2.8,19.91,19.91,0,0,1,20.4.3a.37.37,0,0,0,.3-.1h2.6c.1,0,.2.1.3.1a19.93,19.93,0,0,1,7.6,2A21.81,21.81,0,0,1,43.7,20.7ZM22,41.8A19.8,19.8,0,1,0,2.2,22,19.85,19.85,0,0,0,22,41.8Z"/><path class="cls-1" d="M9.4,28.6V16c.2-.7.3-1.4.5-2a6.72,6.72,0,0,1,6.4-4.2c3.7-.1,7.5,0,11.2,0a7.21,7.21,0,0,1,4,1.2,6.83,6.83,0,0,1,3,5.9v11a6.15,6.15,0,0,1-.1,1.4,6.85,6.85,0,0,1-5.2,5.5c-.4.1-.8.1-1.1.2H15.8c-.3,0-.5-.1-.8-.1a6.85,6.85,0,0,1-5.5-5.2A4.48,4.48,0,0,0,9.4,28.6Zm2.2-6.1V28a5.08,5.08,0,0,0,.3,1.7,4.66,4.66,0,0,0,4.6,3.2h11a5.08,5.08,0,0,0,1.7-.3A4.66,4.66,0,0,0,32.4,28V17a4.15,4.15,0,0,0-.3-1.6,4.66,4.66,0,0,0-4.6-3.2H16.4a4.79,4.79,0,0,0-4,2,5,5,0,0,0-.9,2.9c.1,1.7.1,3.5.1,5.4Z"/><path class="cls-1" d="M28.5,22.5a6.5,6.5,0,0,1-13,0,6.51,6.51,0,0,1,11.1-4.6A6.42,6.42,0,0,1,28.5,22.5ZM22,18.2a4.23,4.23,0,0,0-3,1.2,4.82,4.82,0,0,0-1.3,3,4.23,4.23,0,0,0,1.2,3,4.82,4.82,0,0,0,3,1.3,4.23,4.23,0,0,0,3-1.2,4.82,4.82,0,0,0,1.3-3,4.23,4.23,0,0,0-1.2-3,4.34,4.34,0,0,0-3-1.3Z"/><path class="cls-1" d="M28.8,14.1a1.85,1.85,0,0,1,1.2.5,1.66,1.66,0,0,1,.5,1.2,1.61,1.61,0,0,1-.5,1.1,1.66,1.66,0,0,1-1.2.5,1.85,1.85,0,0,1-1.2-.5,1.66,1.66,0,0,1-.5-1.2,1.61,1.61,0,0,1,.5-1.1A1.35,1.35,0,0,1,28.8,14.1Z"/></svg>