<svg width="44" height="44" viewBox="0 0 44 44" fill="none" xmlns="http://www.w3.org/2000/svg">
<g clip-path="url(#clip0_63:241)">
<path d="M43.548 23.0479C43.4362 23.8861 43.3649 24.7329 43.2051 25.5626C41.8811 32.4574 38.1419 37.5994 31.9875 40.9886C28.5351 42.8877 24.7898 43.7525 20.8624 43.5097C12.6904 43.0059 6.56403 39.1278 2.56746 31.9873C0.659436 28.6052 -0.21924 24.7392 0.0393864 20.8644C0.544149 12.6748 4.43636 6.55148 11.5914 2.54454C14.2452 1.05872 17.1289 0.276928 20.1724 0.0692322C20.2832 0.0539394 20.3928 0.0308038 20.5004 0H23.0562C23.1637 0.0306976 23.2733 0.0538316 23.3841 0.0692322C26.0464 0.244975 28.5904 0.876585 30.9769 2.04714C37.6794 5.333 41.7739 10.6468 43.2094 17.9833C43.3713 18.812 43.4405 19.6587 43.5523 20.4959L43.548 23.0479ZM21.7825 41.5701C32.7031 41.5574 41.5897 32.669 41.5716 21.7644C41.5588 10.8428 32.6711 1.96087 21.7644 1.97365C10.8577 1.98643 1.96579 10.8801 1.97537 21.7804C1.98496 32.6807 10.8801 41.5829 21.7825 41.5701Z" fill="white"/>
<path d="M9.17114 28.3873V16.0789C9.18712 15.9905 9.1967 15.901 9.21906 15.8148C9.38945 15.1587 9.47038 14.461 9.75151 13.856C11.007 11.1357 13.1656 9.68294 16.1633 9.6414C19.9043 9.58815 23.6474 9.62542 27.3895 9.62968C28.8388 9.62968 30.1827 10.0216 31.3647 10.8641C33.3689 12.2935 34.3741 14.2597 34.3805 16.7222C34.3898 20.399 34.3898 24.0754 34.3805 27.7514C34.3883 28.2272 34.3455 28.7024 34.2527 29.1691C33.6223 32.0247 31.8855 33.8492 29.0688 34.6331C28.7003 34.7396 28.3138 34.7726 27.9358 34.8397H15.6212C15.3635 34.7993 15.1026 34.7716 14.8492 34.7151C11.9931 34.0761 10.1636 32.3442 9.37773 29.5206C9.2755 29.151 9.23823 28.7654 9.17114 28.3873ZM11.4074 22.2331C11.4074 24.0545 11.4074 25.8758 11.4074 27.6971C11.3942 28.2721 11.4803 28.845 11.6619 29.3906C12.3754 31.3941 14.1016 32.5988 16.2826 32.6019C19.9415 32.6019 23.6005 32.6137 27.2595 32.5913C27.8246 32.5941 28.3866 32.5082 28.925 32.3367C30.9409 31.6593 32.1421 29.9136 32.1453 27.7344C32.1506 24.0662 32.157 20.399 32.1357 16.7318C32.1379 16.175 32.0531 15.6212 31.8844 15.0905C31.2125 13.0849 29.4703 11.8707 27.3053 11.8653C23.6215 11.8568 19.9376 11.8568 16.2538 11.8653C14.6011 11.8653 13.2646 12.5183 12.2838 13.8571C11.6556 14.7092 11.4021 15.6912 11.4032 16.7457C11.4081 18.5748 11.4092 20.404 11.4064 22.2331H11.4074Z" fill="white"/>
<path d="M28.2722 22.2363C28.2722 25.8076 25.3289 28.742 21.7668 28.7335C18.2047 28.725 15.2602 25.781 15.2794 22.2214C15.2906 20.5032 15.9791 18.8588 17.1953 17.6453C18.4116 16.4318 20.0574 15.7472 21.7753 15.7402C23.4958 15.7475 25.1437 16.4342 26.3605 17.6508C27.5773 18.8674 28.2644 20.5155 28.2722 22.2363ZM21.7838 17.9759C20.6565 17.9759 19.5751 18.4229 18.7767 19.2189C17.9783 20.0148 17.5279 21.095 17.5242 22.2225C17.5242 23.3502 17.9712 24.4319 18.7673 25.2306C19.5634 26.0292 20.6435 26.4795 21.771 26.4829C22.8983 26.4829 23.9797 26.036 24.7781 25.24C25.5766 24.444 26.027 23.3639 26.0306 22.2363C26.0301 21.109 25.5828 20.0278 24.7868 19.2296C23.9908 18.4315 22.9109 17.9814 21.7838 17.978V17.9759Z" fill="white"/>
<path d="M28.5437 13.8475C28.9793 13.8489 29.3965 14.0229 29.7041 14.3313C30.0116 14.6398 30.1845 15.0575 30.1848 15.4931C30.1775 15.9243 30.0019 16.3356 29.6954 16.6389C29.389 16.9423 28.976 17.1136 28.5448 17.1164C28.1094 17.1138 27.6927 16.9394 27.3854 16.6309C27.078 16.3225 26.9049 15.9051 26.9038 15.4697C26.9102 15.0383 27.0856 14.6267 27.3923 14.3234C27.699 14.02 28.1124 13.8492 28.5437 13.8475Z" fill="white"/>
</g>
<defs>
<clipPath id="clip0_63:241">
<rect width="43.5502" height="43.5502" fill="white"/>
</clipPath>
</defs>
</svg>
