<?xml version="1.0" encoding="utf-8"?>
<!-- Generator: Adobe Illustrator 26.0.1, SVG Export Plug-In . SVG Version: 6.00 Build 0)  -->
<svg version="1.1" id="Layer_1" xmlns="http://www.w3.org/2000/svg" xmlns:xlink="http://www.w3.org/1999/xlink" x="0px" y="0px"
	 viewBox="0 0 44 44" style="enable-background:new 0 0 44 44;" xml:space="preserve">
<style type="text/css">
	.st0{fill:#FFFFFF;}
</style>
<g>
	<path class="st0" d="M43.8,23.3c-0.1,0.8-0.2,1.7-0.3,2.5c-1.3,6.9-5.1,12-11.2,15.4c-3.5,1.9-7.2,2.8-11.1,2.5
		c-8.2-0.5-14.3-4.4-18.3-11.5C0.9,28.8,0,25,0.3,21.1C0.8,12.9,4.7,6.8,11.8,2.8c2.7-1.5,5.5-2.3,8.6-2.5c0.1,0,0.2,0,0.3-0.1h2.6
		c0.1,0,0.2,0.1,0.3,0.1c2.7,0.2,5.2,0.8,7.6,2c6.7,3.3,10.8,8.6,12.2,15.9c0.2,0.8,0.2,1.7,0.3,2.5L43.8,23.3z M22,41.8
		c10.9,0,19.8-8.9,19.8-19.8c0-10.9-8.9-19.8-19.8-19.8C11.1,2.2,2.2,11.1,2.2,22C2.2,32.9,11.1,41.8,22,41.8z"/>
	<path class="st0" d="M9.4,28.6V16.3c0-0.1,0-0.2,0-0.3c0.2-0.7,0.3-1.4,0.5-2c1.3-2.7,3.4-4.2,6.4-4.2c3.7-0.1,7.5,0,11.2,0
		c1.4,0,2.8,0.4,4,1.2c2,1.4,3,3.4,3,5.9c0,3.7,0,7.4,0,11c0,0.5,0,1-0.1,1.4c-0.6,2.9-2.4,4.7-5.2,5.5c-0.4,0.1-0.8,0.1-1.1,0.2
		H15.8c-0.3,0-0.5-0.1-0.8-0.1c-2.9-0.6-4.7-2.4-5.5-5.2C9.5,29.4,9.5,29,9.4,28.6z M11.6,22.5c0,1.8,0,3.6,0,5.5
		c0,0.6,0.1,1.1,0.3,1.7c0.7,2,2.4,3.2,4.6,3.2c3.7,0,7.3,0,11,0c0.6,0,1.1-0.1,1.7-0.3c2-0.7,3.2-2.4,3.2-4.6c0-3.7,0-7.3,0-11
		c0-0.6-0.1-1.1-0.3-1.6c-0.7-2-2.4-3.2-4.6-3.2c-3.7,0-7.4,0-11.1,0c-1.7,0-3,0.7-4,2c-0.6,0.9-0.9,1.8-0.9,2.9
		C11.6,18.8,11.6,20.6,11.6,22.5L11.6,22.5z"/>
	<path class="st0" d="M28.5,22.5c0,3.6-2.9,6.5-6.5,6.5c-3.6,0-6.5-3-6.5-6.5c0-1.7,0.7-3.4,1.9-4.6c1.2-1.2,2.9-1.9,4.6-1.9
		c1.7,0,3.4,0.7,4.6,1.9C27.8,19.1,28.5,20.7,28.5,22.5z M22,18.2c-1.1,0-2.2,0.4-3,1.2c-0.8,0.8-1.2,1.9-1.3,3c0,1.1,0.4,2.2,1.2,3
		c0.8,0.8,1.9,1.2,3,1.3c1.1,0,2.2-0.4,3-1.2c0.8-0.8,1.2-1.9,1.3-3c0-1.1-0.4-2.2-1.2-3C24.2,18.7,23.1,18.2,22,18.2L22,18.2z"/>
	<path class="st0" d="M28.8,14.1c0.4,0,0.9,0.2,1.2,0.5c0.3,0.3,0.5,0.7,0.5,1.2c0,0.4-0.2,0.8-0.5,1.1c-0.3,0.3-0.7,0.5-1.2,0.5
		c-0.4,0-0.9-0.2-1.2-0.5c-0.3-0.3-0.5-0.7-0.5-1.2c0-0.4,0.2-0.8,0.5-1.1C27.9,14.2,28.3,14.1,28.8,14.1z"/>
</g>
</svg>
