<?xml version="1.0" encoding="utf-8"?>
<!-- Generator: Adobe Illustrator 26.0.1, SVG Export Plug-In . SVG Version: 6.00 Build 0)  -->
<svg version="1.1" id="Layer_1" xmlns="http://www.w3.org/2000/svg" xmlns:xlink="http://www.w3.org/1999/xlink" x="0px" y="0px"
	 viewBox="0 0 44 44" style="enable-background:new 0 0 44 44;" xml:space="preserve">
<style type="text/css">
	.st0{fill:#FEFEFE;}
</style>
<g>
	<path class="st0" d="M43.8,23.3c-0.1,0.8-0.2,1.7-0.3,2.5c-1.3,6.9-5.1,12-11.2,15.4c-3.5,1.9-7.2,2.8-11.1,2.5
		c-8.2-0.5-14.3-4.4-18.3-11.5C0.9,28.8,0,25,0.3,21.1C0.8,12.9,4.7,6.8,11.8,2.8c2.7-1.5,5.5-2.3,8.6-2.5c0.1,0,0.2,0,0.3-0.1h2.6
		c0.1,0,0.2,0.1,0.3,0.1c2.7,0.2,5.2,0.8,7.6,2c6.7,3.3,10.8,8.6,12.2,15.9c0.2,0.8,0.2,1.7,0.3,2.5L43.8,23.3z M22,41.8
		c10.9,0,19.8-8.9,19.8-19.8c0-10.9-8.9-19.8-19.8-19.8C11.1,2.2,2.2,11.1,2.2,22C2.2,32.9,11.1,41.8,22,41.8z"/>
	<path class="st0" d="M30.8,29.9h-3.9v-0.5c0-1.7,0-3.5,0-5.2c0-0.4,0-0.7-0.1-1.1c-0.1-0.7-0.5-1.1-1-1.2c-0.6-0.1-1.3,0.2-1.5,0.7
		c-0.2,0.5-0.3,1-0.3,1.5c0,1.7,0,3.5,0,5.2v0.5h-3.9V19H24v1.5c0.5-0.8,1.3-1.2,2.2-1.4c1.4-0.3,2.7-0.2,3.7,1c0.6,0.7,1,1.7,1,2.6
		C30.9,25.1,30.8,27.5,30.8,29.9z"/>
	<path class="st0" d="M14.1,19H18v10.8h-3.9V19z"/>
	<path class="st0" d="M16.1,14.1c0.4,0,0.8,0.1,1.1,0.3c0.3,0.2,0.6,0.5,0.7,0.9c0.1,0.4,0.2,0.8,0.1,1.1c-0.1,0.4-0.3,0.7-0.6,1
		c-0.3,0.3-0.6,0.5-1,0.5c-0.4,0.1-0.8,0-1.1-0.1c-0.4-0.2-0.7-0.4-0.9-0.7c-0.2-0.3-0.3-0.7-0.3-1.1c0-0.5,0.2-1,0.6-1.4
		C15.1,14.3,15.6,14.1,16.1,14.1z"/>
</g>
</svg>
