<svg id="Layer_1" data-name="Layer 1" xmlns="http://www.w3.org/2000/svg" viewBox="0 0 44 44"><defs><style>.cls-1{fill:#fefefe;}</style></defs><path class="cls-1" d="M43.8,23.3c-.1.8-.2,1.7-.3,2.5A21.46,21.46,0,0,1,32.3,41.2a19.73,19.73,0,0,1-11.1,2.5A21.37,21.37,0,0,1,2.9,32.2,18.85,18.85,0,0,1,.3,21.1,21.37,21.37,0,0,1,11.8,2.8,19.91,19.91,0,0,1,20.4.3a.37.37,0,0,0,.3-.1h2.6c.1,0,.2.1.3.1a19.93,19.93,0,0,1,7.6,2A21.81,21.81,0,0,1,43.7,20.7ZM22,41.8A19.8,19.8,0,1,0,2.2,22,19.85,19.85,0,0,0,22,41.8Z"/><path class="cls-1" d="M30.8,29.9H26.9V24.2a4.1,4.1,0,0,0-.1-1.1,1.3,1.3,0,0,0-1-1.2,1.41,1.41,0,0,0-1.5.7,4,4,0,0,0-.3,1.5v5.7H20.1V19H24v1.5a3.28,3.28,0,0,1,2.2-1.4,3.45,3.45,0,0,1,3.7,1,4.21,4.21,0,0,1,1,2.6C30.9,25.1,30.8,27.5,30.8,29.9Z"/><path class="cls-1" d="M14.1,19H18V29.8H14.1Z"/><path class="cls-1" d="M16.1,14.1a2,2,0,0,1,1.1.3,1.6,1.6,0,0,1,.7.9,2.16,2.16,0,0,1,.1,1.1,2.07,2.07,0,0,1-.6,1,1.39,1.39,0,0,1-1,.5,2,2,0,0,1-1.1-.1,2.18,2.18,0,0,1-.9-.7,2,2,0,0,1-.3-1.1,2,2,0,0,1,.6-1.4A2.39,2.39,0,0,1,16.1,14.1Z"/></svg>