<svg width="44" height="44" viewBox="0 0 44 44" fill="none" xmlns="http://www.w3.org/2000/svg">
<g clip-path="url(#clip0_63:236)">
<path d="M43.5488 23.0479C43.4359 23.8861 43.3646 24.7329 43.2059 25.5626C41.8826 32.4574 38.1434 37.5994 31.9883 40.9886C28.5358 42.8877 24.7895 43.7579 20.8622 43.5097C12.6901 43.0059 6.56481 39.1278 2.56824 31.9884C0.660397 28.6065 -0.218621 24.7411 0.0390977 20.8665C0.543861 12.6748 4.43607 6.55148 11.5954 2.54668C14.2459 1.05552 17.1329 0.276929 20.1721 0.069233C20.2833 0.0539404 20.3933 0.0308044 20.5012 0H23.0569C23.1645 0.0308038 23.2741 0.0539402 23.3849 0.069233C26.0472 0.246041 28.5902 0.87765 30.9777 2.04714C37.6791 5.333 41.7747 10.6468 43.2091 17.9833C43.372 18.8119 43.4413 19.6587 43.5531 20.497L43.5488 23.0479ZM21.7854 41.5701C32.706 41.5573 41.5926 32.669 41.5745 21.7644C41.5617 10.8428 32.673 1.96193 21.7673 1.97365C10.8617 1.98536 1.96657 10.8758 1.97935 21.7804C1.99213 32.702 10.8798 41.5829 21.7854 41.5701Z" fill="#FEFEFE"/>
<path d="M30.6127 29.6697H26.7184V29.2021C26.7184 27.4735 26.7184 25.7437 26.7184 24.015C26.7222 23.6612 26.6987 23.3076 26.6481 22.9574C26.5363 22.2629 26.1902 21.8806 25.646 21.7911C25.0284 21.6899 24.3682 21.9551 24.1126 22.5367C23.9048 22.9982 23.7877 23.4954 23.7676 24.0012C23.7271 25.7288 23.7516 27.4585 23.7516 29.1872V29.6644H19.8328V18.8216H23.7441V20.2978C24.284 19.5064 25.022 19.09 25.9187 18.9238C27.3105 18.6639 28.6171 18.7619 29.5958 19.957C30.2108 20.6944 30.5616 21.6163 30.5925 22.5761C30.6585 24.9236 30.6127 27.2732 30.6127 29.6697Z" fill="#FEFEFE"/>
<path d="M13.8938 18.8163H17.7839V29.6623H13.8938V18.8163Z" fill="#FEFEFE"/>
<path d="M15.8613 13.8613C16.2507 13.866 16.6301 13.986 16.9514 14.2062C17.2727 14.4264 17.5215 14.737 17.6664 15.0986C17.8113 15.4602 17.8458 15.8566 17.7655 16.2378C17.6852 16.619 17.4937 16.9679 17.2153 17.2403C16.9368 17.5127 16.5839 17.6964 16.2011 17.7683C15.8183 17.8401 15.4228 17.7969 15.0645 17.644C14.7063 17.4911 14.4014 17.2354 14.1884 16.9092C13.9754 16.5831 13.8638 16.2011 13.8678 15.8115C13.8737 15.2886 14.087 14.7893 14.4608 14.4236C14.8347 14.0579 15.3384 13.8556 15.8613 13.8613Z" fill="#FEFEFE"/>
</g>
<defs>
<clipPath id="clip0_63:236">
<rect width="43.5502" height="43.5502" fill="white"/>
</clipPath>
</defs>
</svg>
