<svg width="44" height="44" viewBox="0 0 44 44" fill="none" xmlns="http://www.w3.org/2000/svg">
<g clip-path="url(#clip0_63:246)">
<path d="M43.5482 23.0479C43.4364 23.8872 43.3639 24.7329 43.2053 25.5626C41.882 32.4588 38.1427 37.6008 31.9876 40.9886C28.5352 42.8877 24.7889 43.7579 20.8615 43.5108C12.6895 43.0059 6.56418 39.1279 2.56761 31.9884C0.659446 28.6063 -0.219587 24.7404 0.0384662 20.8655C0.544294 12.6759 4.4365 6.55255 11.5916 2.54561C14.2453 1.05446 17.1291 0.276929 20.1725 0.0692323C20.2834 0.0538316 20.3929 0.0306976 20.5005 0H23.0563C23.1638 0.0308038 23.2735 0.0539394 23.3843 0.0692323C26.0412 0.24604 28.5906 0.87765 30.977 2.04714C37.6742 5.33833 41.7698 10.6468 43.2053 17.9833C43.3671 18.812 43.4364 19.6587 43.5482 20.497V23.0479ZM21.7869 41.5701C32.7075 41.5574 41.5941 32.669 41.576 21.7591C41.5632 10.8375 32.6745 1.95661 21.7688 1.96939C10.8483 1.98217 1.96167 10.8705 1.97978 21.7804C1.99149 32.702 10.8802 41.5829 21.7869 41.5701Z" fill="white"/>
<path d="M34.3549 9.82669V10.3443C34.3549 15.2864 34.3595 20.2282 34.3688 25.1696C34.3768 25.3193 34.3518 25.469 34.2954 25.608C34.2391 25.747 34.1529 25.8718 34.0429 25.9737C31.9465 28.0287 29.8585 30.0918 27.7792 32.1631C27.6895 32.2583 27.5802 32.3329 27.4588 32.3817C27.3375 32.4304 27.2069 32.4521 27.0763 32.4453C25.6291 32.4336 24.1809 32.4272 22.7337 32.4453C22.4922 32.4594 22.2628 32.5561 22.0841 32.7191C21.0969 33.666 20.1385 34.6427 19.1556 35.5949C19.0136 35.7227 18.832 35.7979 18.6412 35.8079C17.7116 35.8281 16.7809 35.8079 15.8523 35.8239C15.5413 35.8239 15.4721 35.7174 15.4774 35.4298C15.4934 34.5777 15.4625 33.7256 15.4934 32.8799C15.5072 32.4933 15.3656 32.4176 15.0174 32.4208C13.2369 32.4336 11.4574 32.4134 9.67798 32.4336C9.28609 32.4336 9.19238 32.3154 9.19238 31.9373C9.20445 26.1992 9.20907 20.4607 9.20623 14.7219C9.20661 14.5004 9.24515 14.2806 9.32017 14.0722C9.8015 12.7664 10.3052 11.4691 10.7844 10.1622C10.8813 9.89805 11.0102 9.79899 11.2998 9.80006C18.8436 9.80787 26.3866 9.81177 33.929 9.81177C34.0493 9.81177 34.1675 9.81816 34.3549 9.82669ZM13.2848 12.1401V28.4437H18.3814V31.753C18.5465 31.6028 18.6434 31.5208 18.7328 31.4335C19.6497 30.5281 20.5708 29.6228 21.4771 28.7111C21.5608 28.6196 21.6637 28.5478 21.7784 28.5007C21.893 28.4535 22.0167 28.4323 22.1405 28.4384C23.987 28.4501 25.8336 28.4544 27.678 28.4384C27.8946 28.43 28.1015 28.3469 28.2637 28.203C29.4276 27.0751 30.5671 25.9226 31.7278 24.7947C31.8284 24.7015 31.9072 24.5871 31.9583 24.4599C32.0095 24.3326 32.0319 24.1956 32.0238 24.0587C32.0111 20.2584 32.0036 16.4595 32.0015 12.662C32.0015 12.1476 32.0015 12.1465 31.469 12.1465H13.2848V12.1401Z" fill="white"/>
<path d="M21.7665 23.3792H19.4844C19.4748 23.2258 19.4599 23.0852 19.4599 22.9446C19.4599 20.9784 19.4663 19.0133 19.4514 17.0482C19.4514 16.6924 19.5355 16.5539 19.9147 16.5742C20.5216 16.6051 21.1308 16.5827 21.7665 16.5827V23.3792Z" fill="white"/>
<path d="M28.0645 16.6157V23.3653H25.7749V16.6157H28.0645Z" fill="white"/>
</g>
<defs>
<clipPath id="clip0_63:246">
<rect width="43.5502" height="43.5502" fill="white"/>
</clipPath>
</defs>
</svg>
