<?xml version="1.0" encoding="utf-8"?>
<!-- Generator: Adobe Illustrator 26.0.1, SVG Export Plug-In . SVG Version: 6.00 Build 0)  -->
<svg version="1.1" id="Layer_1" xmlns="http://www.w3.org/2000/svg" xmlns:xlink="http://www.w3.org/1999/xlink" x="0px" y="0px"
	 viewBox="0 0 44 44" style="enable-background:new 0 0 44 44;" xml:space="preserve">
<style type="text/css">
	.st0{fill:#FFFFFF;}
</style>
<g>
	<path class="st0" d="M43.8,23.3c-0.1,0.8-0.2,1.7-0.3,2.5c-1.3,6.9-5.1,12-11.2,15.4c-3.5,1.9-7.2,2.8-11.1,2.5
		c-8.2-0.5-14.3-4.4-18.3-11.5C0.9,28.8,0,25,0.3,21.1C0.8,12.9,4.7,6.8,11.8,2.8c2.7-1.5,5.5-2.3,8.6-2.5c0.1,0,0.2,0,0.3-0.1h2.6
		c0.1,0,0.2,0.1,0.3,0.1c2.7,0.2,5.2,0.8,7.6,2c6.7,3.3,10.8,8.6,12.2,15.9c0.2,0.8,0.2,1.7,0.3,2.5V23.3z M22,41.8
		c10.9,0,19.8-8.9,19.8-19.8c0-10.9-8.9-19.8-19.8-19.8C11.1,2.2,2.2,11.1,2.2,22C2.2,32.9,11.1,41.8,22,41.8z"/>
	<path class="st0" d="M34.6,10.1v0.5c0,4.9,0,9.9,0,14.8c0,0.1,0,0.3-0.1,0.4c-0.1,0.1-0.1,0.3-0.3,0.4c-2.1,2.1-4.2,4.1-6.3,6.2
		c-0.1,0.1-0.2,0.2-0.3,0.2c-0.1,0-0.3,0.1-0.4,0.1c-1.4,0-2.9,0-4.3,0c-0.2,0-0.5,0.1-0.6,0.3c-1,0.9-1.9,1.9-2.9,2.9
		c-0.1,0.1-0.3,0.2-0.5,0.2c-0.9,0-1.9,0-2.8,0c-0.3,0-0.4-0.1-0.4-0.4c0-0.9,0-1.7,0-2.5c0-0.4-0.1-0.5-0.5-0.5c-1.8,0-3.6,0-5.3,0
		c-0.4,0-0.5-0.1-0.5-0.5c0-5.7,0-11.5,0-17.2c0-0.2,0-0.4,0.1-0.6c0.5-1.3,1-2.6,1.5-3.9c0.1-0.3,0.2-0.4,0.5-0.4
		c7.5,0,15.1,0,22.6,0C34.3,10,34.4,10,34.6,10.1z M13.5,12.4v16.3h5.1V32c0.2-0.2,0.3-0.2,0.4-0.3c0.9-0.9,1.8-1.8,2.7-2.7
		c0.1-0.1,0.2-0.2,0.3-0.2c0.1,0,0.2-0.1,0.4-0.1c1.8,0,3.7,0,5.5,0c0.2,0,0.4-0.1,0.6-0.2c1.2-1.1,2.3-2.3,3.5-3.4
		c0.1-0.1,0.2-0.2,0.2-0.3c0.1-0.1,0.1-0.3,0.1-0.4c0-3.8,0-7.6,0-11.4c0-0.5,0-0.5-0.5-0.5L13.5,12.4L13.5,12.4z"/>
	<path class="st0" d="M22,23.6h-2.3c0-0.2,0-0.3,0-0.4c0-2,0-3.9,0-5.9c0-0.4,0.1-0.5,0.5-0.5c0.6,0,1.2,0,1.9,0V23.6z"/>
	<path class="st0" d="M28.3,16.8v6.7H26v-6.7H28.3z"/>
</g>
</svg>
